Poster: 
http://imgh.us/308469_178122758940397_122523821166958_382140_319780754_n.jpg

Info:
Format : MPEG-4
Format profile : Base Media
Codec ID : isom
File size : 896 MiB
Duration : 2h 3mn
Overall bit rate mode : Variable
Overall bit rate : 1 018 Kbps
Movie name : DVD DVD-
Genre : MyDVD
Writing application : DigiArty AV Encoder Core

Video
ID : 1
Format : AVC
Format/Info : Advanced Video Codec
Format profile : Baseline@L3.0
Format settings, CABAC : No
Format settings, ReFrames : 6 frames
Codec ID : avc1
Codec ID/Info : Advanced Video Coding
Duration : 2h 3mn
Bit rate : 719 Kbps
Width : 720 pixels
Height : 404 pixels
Display aspect ratio : 16:9
Frame rate mode : Constant
Frame rate : 23.976 fps
Color space : YUV
Chroma subsampling : 4:2:0
Bit depth : 8 bits
Scan type : Progressive
Bits/(Pixel*Frame) : 0.103
Stream size : 633 MiB (71%)

Audio
ID : 2
Format : AAC
Format/Info : Advanced Audio Codec
Format profile : LC
Codec ID : 40
Duration : 2h 3mn
Bit rate mode : Variable
Bit rate : 294 Kbps
Channel(s) : 6 channels
Channel positions : Front: L C R, Side: L R, LFE
Sampling rate : 48.0 KHz
Compression mode : Lossy
Stream size : 259 MiB (29%)


SCREENS: 
http://imgh.us/photo-75030.jpg 
http://imgh.us/photo-75036.jpg 
http://imgh.us/photo-75032.jpg 
http://imgh.us/photo-75033.jpg 
http://imgh.us/photo-75035.jpg